<?xml version="1.0" encoding="utf-8" standalone="no"?>
<!DOCTYPE svg PUBLIC "-//W3C//DTD SVG 1.1//EN"
  "http://www.w3.org/Graphics/SVG/1.1/DTD/svg11.dtd">
<svg xmlns:xlink="http://www.w3.org/1999/xlink" width="460.8pt" height="345.6pt" viewBox="0 0 460.8 345.6" xmlns="http://www.w3.org/2000/svg" version="1.1">
 <metadata>
  <rdf:RDF xmlns:dc="http://purl.org/dc/elements/1.1/" xmlns:cc="http://creativecommons.org/ns#" xmlns:rdf="http://www.w3.org/1999/02/22-rdf-syntax-ns#">
   <cc:Work>
    <dc:type rdf:resource="http://purl.org/dc/dcmitype/StillImage"/>
    <dc:date>2026-03-07T14:56:01.255445</dc:date>
    <dc:format>image/svg+xml</dc:format>
    <dc:creator>
     <cc:Agent>
      <dc:title>Matplotlib v3.10.3, https://matplotlib.org/</dc:title>
     </cc:Agent>
    </dc:creator>
   </cc:Work>
  </rdf:RDF>
 </metadata>
 <defs>
  <style type="text/css">*{stroke-linejoin: round; stroke-linecap: butt}</style>
 </defs>
 <g id="figure_1">
  <g id="patch_1">
   <path d="M 0 345.6 
L 460.8 345.6 
L 460.8 0 
L 0 0 
z
" style="fill: #ffffff"/>
  </g>
  <g id="axes_1">
   <g id="patch_2">
    <path d="M 57.6 307.584 
L 414.72 307.584 
L 414.72 41.472 
L 57.6 41.472 
z
" style="fill: #ffffff"/>
   </g>
   <g id="matplotlib.axis_1">
    <g id="xtick_1">
     <g id="line2d_1">
      <defs>
       <path id="m2864d077cb" d="M 0 0 
L 0 3.5 
" style="stroke: #000000; stroke-width: 0.8"/>
      </defs>
      <g>
       <use xlink:href="#m2864d077cb" x="73.832727" y="307.584" style="stroke: #000000; stroke-width: 0.8"/>
      </g>
     </g>
     <g id="text_1">
      <!-- 4.0 -->
      <g transform="translate(65.881165 322.182437) scale(0.1 -0.1)">
       <defs>
        <path id="DejaVuSans-34" d="M 2419 4116 
L 825 1625 
L 2419 1625 
L 2419 4116 
z
M 2253 4666 
L 3047 4666 
L 3047 1625 
L 3713 1625 
L 3713 1100 
L 3047 1100 
L 3047 0 
L 2419 0 
L 2419 1100 
L 313 1100 
L 313 1709 
L 2253 4666 
z
" transform="scale(0.015625)"/>
        <path id="DejaVuSans-2e" d="M 684 794 
L 1344 794 
L 1344 0 
L 684 0 
L 684 794 
z
" transform="scale(0.015625)"/>
        <path id="DejaVuSans-30" d="M 2034 4250 
Q 1547 4250 1301 3770 
Q 1056 3291 1056 2328 
Q 1056 1369 1301 889 
Q 1547 409 2034 409 
Q 2525 409 2770 889 
Q 3016 1369 3016 2328 
Q 3016 3291 2770 3770 
Q 2525 4250 2034 4250 
z
M 2034 4750 
Q 2819 4750 3233 4129 
Q 3647 3509 3647 2328 
Q 3647 1150 3233 529 
Q 2819 -91 2034 -91 
Q 1250 -91 836 529 
Q 422 1150 422 2328 
Q 422 3509 836 4129 
Q 1250 4750 2034 4750 
z
" transform="scale(0.015625)"/>
       </defs>
       <use xlink:href="#DejaVuSans-34"/>
       <use xlink:href="#DejaVuSans-2e" transform="translate(63.623047 0)"/>
       <use xlink:href="#DejaVuSans-30" transform="translate(95.410156 0)"/>
      </g>
     </g>
    </g>
    <g id="xtick_2">
     <g id="line2d_2">
      <g>
       <use xlink:href="#m2864d077cb" x="114.414545" y="307.584" style="stroke: #000000; stroke-width: 0.8"/>
      </g>
     </g>
     <g id="text_2">
      <!-- 4.5 -->
      <g transform="translate(106.462983 322.182437) scale(0.1 -0.1)">
       <defs>
        <path id="DejaVuSans-35" d="M 691 4666 
L 3169 4666 
L 3169 4134 
L 1269 4134 
L 1269 2991 
Q 1406 3038 1543 3061 
Q 1681 3084 1819 3084 
Q 2600 3084 3056 2656 
Q 3513 2228 3513 1497 
Q 3513 744 3044 326 
Q 2575 -91 1722 -91 
Q 1428 -91 1123 -41 
Q 819 9 494 109 
L 494 744 
Q 775 591 1075 516 
Q 1375 441 1709 441 
Q 2250 441 2565 725 
Q 2881 1009 2881 1497 
Q 2881 1984 2565 2268 
Q 2250 2553 1709 2553 
Q 1456 2553 1204 2497 
Q 953 2441 691 2322 
L 691 4666 
z
" transform="scale(0.015625)"/>
       </defs>
       <use xlink:href="#DejaVuSans-34"/>
       <use xlink:href="#DejaVuSans-2e" transform="translate(63.623047 0)"/>
       <use xlink:href="#DejaVuSans-35" transform="translate(95.410156 0)"/>
      </g>
     </g>
    </g>
    <g id="xtick_3">
     <g id="line2d_3">
      <g>
       <use xlink:href="#m2864d077cb" x="154.996364" y="307.584" style="stroke: #000000; stroke-width: 0.8"/>
      </g>
     </g>
     <g id="text_3">
      <!-- 5.0 -->
      <g transform="translate(147.044801 322.182437) scale(0.1 -0.1)">
       <use xlink:href="#DejaVuSans-35"/>
       <use xlink:href="#DejaVuSans-2e" transform="translate(63.623047 0)"/>
       <use xlink:href="#DejaVuSans-30" transform="translate(95.410156 0)"/>
      </g>
     </g>
    </g>
    <g id="xtick_4">
     <g id="line2d_4">
      <g>
       <use xlink:href="#m2864d077cb" x="195.578182" y="307.584" style="stroke: #000000; stroke-width: 0.8"/>
      </g>
     </g>
     <g id="text_4">
      <!-- 5.5 -->
      <g transform="translate(187.626619 322.182437) scale(0.1 -0.1)">
       <use xlink:href="#DejaVuSans-35"/>
       <use xlink:href="#DejaVuSans-2e" transform="translate(63.623047 0)"/>
       <use xlink:href="#DejaVuSans-35" transform="translate(95.410156 0)"/>
      </g>
     </g>
    </g>
    <g id="xtick_5">
     <g id="line2d_5">
      <g>
       <use xlink:href="#m2864d077cb" x="236.16" y="307.584" style="stroke: #000000; stroke-width: 0.8"/>
      </g>
     </g>
     <g id="text_5">
      <!-- 6.0 -->
      <g transform="translate(228.208438 322.182437) scale(0.1 -0.1)">
       <defs>
        <path id="DejaVuSans-36" d="M 2113 2584 
Q 1688 2584 1439 2293 
Q 1191 2003 1191 1497 
Q 1191 994 1439 701 
Q 1688 409 2113 409 
Q 2538 409 2786 701 
Q 3034 994 3034 1497 
Q 3034 2003 2786 2293 
Q 2538 2584 2113 2584 
z
M 3366 4563 
L 3366 3988 
Q 3128 4100 2886 4159 
Q 2644 4219 2406 4219 
Q 1781 4219 1451 3797 
Q 1122 3375 1075 2522 
Q 1259 2794 1537 2939 
Q 1816 3084 2150 3084 
Q 2853 3084 3261 2657 
Q 3669 2231 3669 1497 
Q 3669 778 3244 343 
Q 2819 -91 2113 -91 
Q 1303 -91 875 529 
Q 447 1150 447 2328 
Q 447 3434 972 4092 
Q 1497 4750 2381 4750 
Q 2619 4750 2861 4703 
Q 3103 4656 3366 4563 
z
" transform="scale(0.015625)"/>
       </defs>
       <use xlink:href="#DejaVuSans-36"/>
       <use xlink:href="#DejaVuSans-2e" transform="translate(63.623047 0)"/>
       <use xlink:href="#DejaVuSans-30" transform="translate(95.410156 0)"/>
      </g>
     </g>
    </g>
    <g id="xtick_6">
     <g id="line2d_6">
      <g>
       <use xlink:href="#m2864d077cb" x="276.741818" y="307.584" style="stroke: #000000; stroke-width: 0.8"/>
      </g>
     </g>
     <g id="text_6">
      <!-- 6.5 -->
      <g transform="translate(268.790256 322.182437) scale(0.1 -0.1)">
       <use xlink:href="#DejaVuSans-36"/>
       <use xlink:href="#DejaVuSans-2e" transform="translate(63.623047 0)"/>
       <use xlink:href="#DejaVuSans-35" transform="translate(95.410156 0)"/>
      </g>
     </g>
    </g>
    <g id="xtick_7">
     <g id="line2d_7">
      <g>
       <use xlink:href="#m2864d077cb" x="317.323636" y="307.584" style="stroke: #000000; stroke-width: 0.8"/>
      </g>
     </g>
     <g id="text_7">
      <!-- 7.0 -->
      <g transform="translate(309.372074 322.182437) scale(0.1 -0.1)">
       <defs>
        <path id="DejaVuSans-37" d="M 525 4666 
L 3525 4666 
L 3525 4397 
L 1831 0 
L 1172 0 
L 2766 4134 
L 525 4134 
L 525 4666 
z
" transform="scale(0.015625)"/>
       </defs>
       <use xlink:href="#DejaVuSans-37"/>
       <use xlink:href="#DejaVuSans-2e" transform="translate(63.623047 0)"/>
       <use xlink:href="#DejaVuSans-30" transform="translate(95.410156 0)"/>
      </g>
     </g>
    </g>
    <g id="xtick_8">
     <g id="line2d_8">
      <g>
       <use xlink:href="#m2864d077cb" x="357.905455" y="307.584" style="stroke: #000000; stroke-width: 0.8"/>
      </g>
     </g>
     <g id="text_8">
      <!-- 7.5 -->
      <g transform="translate(349.953892 322.182437) scale(0.1 -0.1)">
       <use xlink:href="#DejaVuSans-37"/>
       <use xlink:href="#DejaVuSans-2e" transform="translate(63.623047 0)"/>
       <use xlink:href="#DejaVuSans-35" transform="translate(95.410156 0)"/>
      </g>
     </g>
    </g>
    <g id="xtick_9">
     <g id="line2d_9">
      <g>
       <use xlink:href="#m2864d077cb" x="398.487273" y="307.584" style="stroke: #000000; stroke-width: 0.8"/>
      </g>
     </g>
     <g id="text_9">
      <!-- 8.0 -->
      <g transform="translate(390.53571 322.182437) scale(0.1 -0.1)">
       <defs>
        <path id="DejaVuSans-38" d="M 2034 2216 
Q 1584 2216 1326 1975 
Q 1069 1734 1069 1313 
Q 1069 891 1326 650 
Q 1584 409 2034 409 
Q 2484 409 2743 651 
Q 3003 894 3003 1313 
Q 3003 1734 2745 1975 
Q 2488 2216 2034 2216 
z
M 1403 2484 
Q 997 2584 770 2862 
Q 544 3141 544 3541 
Q 544 4100 942 4425 
Q 1341 4750 2034 4750 
Q 2731 4750 3128 4425 
Q 3525 4100 3525 3541 
Q 3525 3141 3298 2862 
Q 3072 2584 2669 2484 
Q 3125 2378 3379 2068 
Q 3634 1759 3634 1313 
Q 3634 634 3220 271 
Q 2806 -91 2034 -91 
Q 1263 -91 848 271 
Q 434 634 434 1313 
Q 434 1759 690 2068 
Q 947 2378 1403 2484 
z
M 1172 3481 
Q 1172 3119 1398 2916 
Q 1625 2713 2034 2713 
Q 2441 2713 2670 2916 
Q 2900 3119 2900 3481 
Q 2900 3844 2670 4047 
Q 2441 4250 2034 4250 
Q 1625 4250 1398 4047 
Q 1172 3844 1172 3481 
z
" transform="scale(0.015625)"/>
       </defs>
       <use xlink:href="#DejaVuSans-38"/>
       <use xlink:href="#DejaVuSans-2e" transform="translate(63.623047 0)"/>
       <use xlink:href="#DejaVuSans-30" transform="translate(95.410156 0)"/>
      </g>
     </g>
    </g>
    <g id="text_10">
     <!-- frequency (GHz) -->
     <g transform="translate(195.334219 335.860562) scale(0.1 -0.1)">
      <defs>
       <path id="DejaVuSans-66" d="M 2375 4863 
L 2375 4384 
L 1825 4384 
Q 1516 4384 1395 4259 
Q 1275 4134 1275 3809 
L 1275 3500 
L 2222 3500 
L 2222 3053 
L 1275 3053 
L 1275 0 
L 697 0 
L 697 3053 
L 147 3053 
L 147 3500 
L 697 3500 
L 697 3744 
Q 697 4328 969 4595 
Q 1241 4863 1831 4863 
L 2375 4863 
z
" transform="scale(0.015625)"/>
       <path id="DejaVuSans-72" d="M 2631 2963 
Q 2534 3019 2420 3045 
Q 2306 3072 2169 3072 
Q 1681 3072 1420 2755 
Q 1159 2438 1159 1844 
L 1159 0 
L 581 0 
L 581 3500 
L 1159 3500 
L 1159 2956 
Q 1341 3275 1631 3429 
Q 1922 3584 2338 3584 
Q 2397 3584 2469 3576 
Q 2541 3569 2628 3553 
L 2631 2963 
z
" transform="scale(0.015625)"/>
       <path id="DejaVuSans-65" d="M 3597 1894 
L 3597 1613 
L 953 1613 
Q 991 1019 1311 708 
Q 1631 397 2203 397 
Q 2534 397 2845 478 
Q 3156 559 3463 722 
L 3463 178 
Q 3153 47 2828 -22 
Q 2503 -91 2169 -91 
Q 1331 -91 842 396 
Q 353 884 353 1716 
Q 353 2575 817 3079 
Q 1281 3584 2069 3584 
Q 2775 3584 3186 3129 
Q 3597 2675 3597 1894 
z
M 3022 2063 
Q 3016 2534 2758 2815 
Q 2500 3097 2075 3097 
Q 1594 3097 1305 2825 
Q 1016 2553 972 2059 
L 3022 2063 
z
" transform="scale(0.015625)"/>
       <path id="DejaVuSans-71" d="M 947 1747 
Q 947 1113 1208 752 
Q 1469 391 1925 391 
Q 2381 391 2643 752 
Q 2906 1113 2906 1747 
Q 2906 2381 2643 2742 
Q 2381 3103 1925 3103 
Q 1469 3103 1208 2742 
Q 947 2381 947 1747 
z
M 2906 525 
Q 2725 213 2448 61 
Q 2172 -91 1784 -91 
Q 1150 -91 751 415 
Q 353 922 353 1747 
Q 353 2572 751 3078 
Q 1150 3584 1784 3584 
Q 2172 3584 2448 3432 
Q 2725 3281 2906 2969 
L 2906 3500 
L 3481 3500 
L 3481 -1331 
L 2906 -1331 
L 2906 525 
z
" transform="scale(0.015625)"/>
       <path id="DejaVuSans-75" d="M 544 1381 
L 544 3500 
L 1119 3500 
L 1119 1403 
Q 1119 906 1312 657 
Q 1506 409 1894 409 
Q 2359 409 2629 706 
Q 2900 1003 2900 1516 
L 2900 3500 
L 3475 3500 
L 3475 0 
L 2900 0 
L 2900 538 
Q 2691 219 2414 64 
Q 2138 -91 1772 -91 
Q 1169 -91 856 284 
Q 544 659 544 1381 
z
M 1991 3584 
L 1991 3584 
z
" transform="scale(0.015625)"/>
       <path id="DejaVuSans-6e" d="M 3513 2113 
L 3513 0 
L 2938 0 
L 2938 2094 
Q 2938 2591 2744 2837 
Q 2550 3084 2163 3084 
Q 1697 3084 1428 2787 
Q 1159 2491 1159 1978 
L 1159 0 
L 581 0 
L 581 3500 
L 1159 3500 
L 1159 2956 
Q 1366 3272 1645 3428 
Q 1925 3584 2291 3584 
Q 2894 3584 3203 3211 
Q 3513 2838 3513 2113 
z
" transform="scale(0.015625)"/>
       <path id="DejaVuSans-63" d="M 3122 3366 
L 3122 2828 
Q 2878 2963 2633 3030 
Q 2388 3097 2138 3097 
Q 1578 3097 1268 2742 
Q 959 2388 959 1747 
Q 959 1106 1268 751 
Q 1578 397 2138 397 
Q 2388 397 2633 464 
Q 2878 531 3122 666 
L 3122 134 
Q 2881 22 2623 -34 
Q 2366 -91 2075 -91 
Q 1284 -91 818 406 
Q 353 903 353 1747 
Q 353 2603 823 3093 
Q 1294 3584 2113 3584 
Q 2378 3584 2631 3529 
Q 2884 3475 3122 3366 
z
" transform="scale(0.015625)"/>
       <path id="DejaVuSans-79" d="M 2059 -325 
Q 1816 -950 1584 -1140 
Q 1353 -1331 966 -1331 
L 506 -1331 
L 506 -850 
L 844 -850 
Q 1081 -850 1212 -737 
Q 1344 -625 1503 -206 
L 1606 56 
L 191 3500 
L 800 3500 
L 1894 763 
L 2988 3500 
L 3597 3500 
L 2059 -325 
z
" transform="scale(0.015625)"/>
       <path id="DejaVuSans-20" transform="scale(0.015625)"/>
       <path id="DejaVuSans-28" d="M 1984 4856 
Q 1566 4138 1362 3434 
Q 1159 2731 1159 2009 
Q 1159 1288 1364 580 
Q 1569 -128 1984 -844 
L 1484 -844 
Q 1016 -109 783 600 
Q 550 1309 550 2009 
Q 550 2706 781 3412 
Q 1013 4119 1484 4856 
L 1984 4856 
z
" transform="scale(0.015625)"/>
       <path id="DejaVuSans-47" d="M 3809 666 
L 3809 1919 
L 2778 1919 
L 2778 2438 
L 4434 2438 
L 4434 434 
Q 4069 175 3628 42 
Q 3188 -91 2688 -91 
Q 1594 -91 976 548 
Q 359 1188 359 2328 
Q 359 3472 976 4111 
Q 1594 4750 2688 4750 
Q 3144 4750 3555 4637 
Q 3966 4525 4313 4306 
L 4313 3634 
Q 3963 3931 3569 4081 
Q 3175 4231 2741 4231 
Q 1884 4231 1454 3753 
Q 1025 3275 1025 2328 
Q 1025 1384 1454 906 
Q 1884 428 2741 428 
Q 3075 428 3337 486 
Q 3600 544 3809 666 
z
" transform="scale(0.015625)"/>
       <path id="DejaVuSans-48" d="M 628 4666 
L 1259 4666 
L 1259 2753 
L 3553 2753 
L 3553 4666 
L 4184 4666 
L 4184 0 
L 3553 0 
L 3553 2222 
L 1259 2222 
L 1259 0 
L 628 0 
L 628 4666 
z
" transform="scale(0.015625)"/>
       <path id="DejaVuSans-7a" d="M 353 3500 
L 3084 3500 
L 3084 2975 
L 922 459 
L 3084 459 
L 3084 0 
L 275 0 
L 275 525 
L 2438 3041 
L 353 3041 
L 353 3500 
z
" transform="scale(0.015625)"/>
       <path id="DejaVuSans-29" d="M 513 4856 
L 1013 4856 
Q 1481 4119 1714 3412 
Q 1947 2706 1947 2009 
Q 1947 1309 1714 600 
Q 1481 -109 1013 -844 
L 513 -844 
Q 928 -128 1133 580 
Q 1338 1288 1338 2009 
Q 1338 2731 1133 3434 
Q 928 4138 513 4856 
z
" transform="scale(0.015625)"/>
      </defs>
      <use xlink:href="#DejaVuSans-66"/>
      <use xlink:href="#DejaVuSans-72" transform="translate(35.205078 0)"/>
      <use xlink:href="#DejaVuSans-65" transform="translate(74.068359 0)"/>
      <use xlink:href="#DejaVuSans-71" transform="translate(135.591797 0)"/>
      <use xlink:href="#DejaVuSans-75" transform="translate(199.068359 0)"/>
      <use xlink:href="#DejaVuSans-65" transform="translate(262.447266 0)"/>
      <use xlink:href="#DejaVuSans-6e" transform="translate(323.970703 0)"/>
      <use xlink:href="#DejaVuSans-63" transform="translate(387.349609 0)"/>
      <use xlink:href="#DejaVuSans-79" transform="translate(442.330078 0)"/>
      <use xlink:href="#DejaVuSans-20" transform="translate(501.509766 0)"/>
      <use xlink:href="#DejaVuSans-28" transform="translate(533.296875 0)"/>
      <use xlink:href="#DejaVuSans-47" transform="translate(572.310547 0)"/>
      <use xlink:href="#DejaVuSans-48" transform="translate(649.800781 0)"/>
      <use xlink:href="#DejaVuSans-7a" transform="translate(724.996094 0)"/>
      <use xlink:href="#DejaVuSans-29" transform="translate(777.486328 0)"/>
     </g>
    </g>
   </g>
   <g id="matplotlib.axis_2">
    <g id="ytick_1">
     <g id="line2d_10">
      <defs>
       <path id="m01558c34e8" d="M 0 0 
L -3.5 0 
" style="stroke: #000000; stroke-width: 0.8"/>
      </defs>
      <g>
       <use xlink:href="#m01558c34e8" x="57.6" y="294.352641" style="stroke: #000000; stroke-width: 0.8"/>
      </g>
     </g>
     <g id="text_11">
      <!-- −70 -->
      <g transform="translate(29.495313 298.151859) scale(0.1 -0.1)">
       <defs>
        <path id="DejaVuSans-2212" d="M 678 2272 
L 4684 2272 
L 4684 1741 
L 678 1741 
L 678 2272 
z
" transform="scale(0.015625)"/>
       </defs>
       <use xlink:href="#DejaVuSans-2212"/>
       <use xlink:href="#DejaVuSans-37" transform="translate(83.789062 0)"/>
       <use xlink:href="#DejaVuSans-30" transform="translate(147.412109 0)"/>
      </g>
     </g>
    </g>
    <g id="ytick_2">
     <g id="line2d_11">
      <g>
       <use xlink:href="#m01558c34e8" x="57.6" y="259.954834" style="stroke: #000000; stroke-width: 0.8"/>
      </g>
     </g>
     <g id="text_12">
      <!-- −60 -->
      <g transform="translate(29.495313 263.754053) scale(0.1 -0.1)">
       <use xlink:href="#DejaVuSans-2212"/>
       <use xlink:href="#DejaVuSans-36" transform="translate(83.789062 0)"/>
       <use xlink:href="#DejaVuSans-30" transform="translate(147.412109 0)"/>
      </g>
     </g>
    </g>
    <g id="ytick_3">
     <g id="line2d_12">
      <g>
       <use xlink:href="#m01558c34e8" x="57.6" y="225.557028" style="stroke: #000000; stroke-width: 0.8"/>
      </g>
     </g>
     <g id="text_13">
      <!-- −50 -->
      <g transform="translate(29.495313 229.356247) scale(0.1 -0.1)">
       <use xlink:href="#DejaVuSans-2212"/>
       <use xlink:href="#DejaVuSans-35" transform="translate(83.789062 0)"/>
       <use xlink:href="#DejaVuSans-30" transform="translate(147.412109 0)"/>
      </g>
     </g>
    </g>
    <g id="ytick_4">
     <g id="line2d_13">
      <g>
       <use xlink:href="#m01558c34e8" x="57.6" y="191.159222" style="stroke: #000000; stroke-width: 0.8"/>
      </g>
     </g>
     <g id="text_14">
      <!-- −40 -->
      <g transform="translate(29.495313 194.958441) scale(0.1 -0.1)">
       <use xlink:href="#DejaVuSans-2212"/>
       <use xlink:href="#DejaVuSans-34" transform="translate(83.789062 0)"/>
       <use xlink:href="#DejaVuSans-30" transform="translate(147.412109 0)"/>
      </g>
     </g>
    </g>
    <g id="ytick_5">
     <g id="line2d_14">
      <g>
       <use xlink:href="#m01558c34e8" x="57.6" y="156.761415" style="stroke: #000000; stroke-width: 0.8"/>
      </g>
     </g>
     <g id="text_15">
      <!-- −30 -->
      <g transform="translate(29.495313 160.560634) scale(0.1 -0.1)">
       <defs>
        <path id="DejaVuSans-33" d="M 2597 2516 
Q 3050 2419 3304 2112 
Q 3559 1806 3559 1356 
Q 3559 666 3084 287 
Q 2609 -91 1734 -91 
Q 1441 -91 1130 -33 
Q 819 25 488 141 
L 488 750 
Q 750 597 1062 519 
Q 1375 441 1716 441 
Q 2309 441 2620 675 
Q 2931 909 2931 1356 
Q 2931 1769 2642 2001 
Q 2353 2234 1838 2234 
L 1294 2234 
L 1294 2753 
L 1863 2753 
Q 2328 2753 2575 2939 
Q 2822 3125 2822 3475 
Q 2822 3834 2567 4026 
Q 2313 4219 1838 4219 
Q 1578 4219 1281 4162 
Q 984 4106 628 3988 
L 628 4550 
Q 988 4650 1302 4700 
Q 1616 4750 1894 4750 
Q 2613 4750 3031 4423 
Q 3450 4097 3450 3541 
Q 3450 3153 3228 2886 
Q 3006 2619 2597 2516 
z
" transform="scale(0.015625)"/>
       </defs>
       <use xlink:href="#DejaVuSans-2212"/>
       <use xlink:href="#DejaVuSans-33" transform="translate(83.789062 0)"/>
       <use xlink:href="#DejaVuSans-30" transform="translate(147.412109 0)"/>
      </g>
     </g>
    </g>
    <g id="ytick_6">
     <g id="line2d_15">
      <g>
       <use xlink:href="#m01558c34e8" x="57.6" y="122.363609" style="stroke: #000000; stroke-width: 0.8"/>
      </g>
     </g>
     <g id="text_16">
      <!-- −20 -->
      <g transform="translate(29.495313 126.162828) scale(0.1 -0.1)">
       <defs>
        <path id="DejaVuSans-32" d="M 1228 531 
L 3431 531 
L 3431 0 
L 469 0 
L 469 531 
Q 828 903 1448 1529 
Q 2069 2156 2228 2338 
Q 2531 2678 2651 2914 
Q 2772 3150 2772 3378 
Q 2772 3750 2511 3984 
Q 2250 4219 1831 4219 
Q 1534 4219 1204 4116 
Q 875 4013 500 3803 
L 500 4441 
Q 881 4594 1212 4672 
Q 1544 4750 1819 4750 
Q 2544 4750 2975 4387 
Q 3406 4025 3406 3419 
Q 3406 3131 3298 2873 
Q 3191 2616 2906 2266 
Q 2828 2175 2409 1742 
Q 1991 1309 1228 531 
z
" transform="scale(0.015625)"/>
       </defs>
       <use xlink:href="#DejaVuSans-2212"/>
       <use xlink:href="#DejaVuSans-32" transform="translate(83.789062 0)"/>
       <use xlink:href="#DejaVuSans-30" transform="translate(147.412109 0)"/>
      </g>
     </g>
    </g>
    <g id="ytick_7">
     <g id="line2d_16">
      <g>
       <use xlink:href="#m01558c34e8" x="57.6" y="87.965803" style="stroke: #000000; stroke-width: 0.8"/>
      </g>
     </g>
     <g id="text_17">
      <!-- −10 -->
      <g transform="translate(29.495313 91.765022) scale(0.1 -0.1)">
       <defs>
        <path id="DejaVuSans-31" d="M 794 531 
L 1825 531 
L 1825 4091 
L 703 3866 
L 703 4441 
L 1819 4666 
L 2450 4666 
L 2450 531 
L 3481 531 
L 3481 0 
L 794 0 
L 794 531 
z
" transform="scale(0.015625)"/>
       </defs>
       <use xlink:href="#DejaVuSans-2212"/>
       <use xlink:href="#DejaVuSans-31" transform="translate(83.789062 0)"/>
       <use xlink:href="#DejaVuSans-30" transform="translate(147.412109 0)"/>
      </g>
     </g>
    </g>
    <g id="ytick_8">
     <g id="line2d_17">
      <g>
       <use xlink:href="#m01558c34e8" x="57.6" y="53.567997" style="stroke: #000000; stroke-width: 0.8"/>
      </g>
     </g>
     <g id="text_18">
      <!-- 0 -->
      <g transform="translate(44.2375 57.367215) scale(0.1 -0.1)">
       <use xlink:href="#DejaVuSans-30"/>
      </g>
     </g>
    </g>
    <g id="text_19">
     <!-- $|S_{21}|^2 (dB)$ -->
     <g transform="translate(23.095312 198.628) rotate(-90) scale(0.1 -0.1)">
      <defs>
       <path id="DejaVuSans-7c" d="M 1344 4891 
L 1344 -1509 
L 813 -1509 
L 813 4891 
L 1344 4891 
z
" transform="scale(0.015625)"/>
       <path id="DejaVuSans-Oblique-53" d="M 3859 4513 
L 3738 3897 
Q 3422 4066 3111 4152 
Q 2800 4238 2509 4238 
Q 1944 4238 1609 3991 
Q 1275 3744 1275 3334 
Q 1275 3109 1398 2989 
Q 1522 2869 2034 2731 
L 2413 2638 
Q 3053 2472 3303 2217 
Q 3553 1963 3553 1503 
Q 3553 797 2998 353 
Q 2444 -91 1538 -91 
Q 1166 -91 791 -17 
Q 416 56 38 206 
L 166 856 
Q 513 641 861 531 
Q 1209 422 1556 422 
Q 2147 422 2503 684 
Q 2859 947 2859 1369 
Q 2859 1650 2717 1795 
Q 2575 1941 2106 2059 
L 1728 2156 
Q 1081 2325 845 2545 
Q 609 2766 609 3163 
Q 609 3859 1145 4304 
Q 1681 4750 2541 4750 
Q 2875 4750 3203 4690 
Q 3531 4631 3859 4513 
z
" transform="scale(0.015625)"/>
       <path id="DejaVuSans-Oblique-64" d="M 2675 525 
Q 2444 222 2128 65 
Q 1813 -91 1428 -91 
Q 903 -91 598 267 
Q 294 625 294 1247 
Q 294 1766 478 2236 
Q 663 2706 1013 3078 
Q 1244 3325 1534 3454 
Q 1825 3584 2144 3584 
Q 2481 3584 2739 3421 
Q 2997 3259 3138 2956 
L 3513 4863 
L 4091 4863 
L 3144 0 
L 2566 0 
L 2675 525 
z
M 891 1350 
Q 891 897 1095 644 
Q 1300 391 1663 391 
Q 1931 391 2161 520 
Q 2391 650 2566 903 
Q 2750 1166 2856 1509 
Q 2963 1853 2963 2188 
Q 2963 2622 2758 2865 
Q 2553 3109 2194 3109 
Q 1922 3109 1687 2981 
Q 1453 2853 1288 2613 
Q 1106 2353 998 2009 
Q 891 1666 891 1350 
z
" transform="scale(0.015625)"/>
       <path id="DejaVuSans-Oblique-42" d="M 1081 4666 
L 2694 4666 
Q 3350 4666 3675 4422 
Q 4000 4178 4000 3688 
Q 4000 3238 3720 2911 
Q 3441 2584 2988 2516 
Q 3375 2428 3569 2181 
Q 3763 1934 3763 1522 
Q 3763 819 3242 409 
Q 2722 0 1819 0 
L 172 0 
L 1081 4666 
z
M 1234 2228 
L 903 519 
L 1919 519 
Q 2491 519 2800 781 
Q 3109 1044 3109 1522 
Q 3109 1891 2904 2059 
Q 2700 2228 2247 2228 
L 1234 2228 
z
M 1606 4147 
L 1331 2741 
L 2272 2741 
Q 2775 2741 3058 2959 
Q 3341 3178 3341 3566 
Q 3341 3869 3150 4008 
Q 2959 4147 2541 4147 
L 1606 4147 
z
" transform="scale(0.015625)"/>
      </defs>
      <use xlink:href="#DejaVuSans-7c" transform="translate(0 0.765625)"/>
      <use xlink:href="#DejaVuSans-Oblique-53" transform="translate(33.691406 0.765625)"/>
      <use xlink:href="#DejaVuSans-32" transform="translate(97.167969 -15.640625) scale(0.7)"/>
      <use xlink:href="#DejaVuSans-31" transform="translate(141.704102 -15.640625) scale(0.7)"/>
      <use xlink:href="#DejaVuSans-7c" transform="translate(188.974609 0.765625)"/>
      <use xlink:href="#DejaVuSans-32" transform="translate(223.623047 39.046875) scale(0.7)"/>
      <use xlink:href="#DejaVuSans-28" transform="translate(270.893555 0.765625)"/>
      <use xlink:href="#DejaVuSans-Oblique-64" transform="translate(309.907227 0.765625)"/>
      <use xlink:href="#DejaVuSans-Oblique-42" transform="translate(373.383789 0.765625)"/>
      <use xlink:href="#DejaVuSans-29" transform="translate(441.987305 0.765625)"/>
     </g>
    </g>
   </g>
   <g id="line2d_18">
    <path d="M 73.832727 93.208206 
L 75.293819 87.589431 
L 76.917254 82.237028 
L 78.670564 77.219571 
L 80.52128 72.586603 
L 82.404464 68.458331 
L 84.25518 64.92759 
L 86.00849 62.052155 
L 87.631925 59.798553 
L 89.190423 58.005514 
L 90.683983 56.621315 
L 92.145075 55.568689 
L 93.606166 54.790564 
L 95.099727 54.246495 
L 96.690693 53.903531 
L 98.476472 53.750163 
L 100.619406 53.800305 
L 103.50912 54.109994 
L 114.418604 55.478847 
L 118.28238 55.627083 
L 122.373436 55.556793 
L 127.600897 55.226724 
L 135.945353 54.691085 
L 139.51691 54.709728 
L 142.601437 54.945404 
L 145.52362 55.390743 
L 148.445803 56.062195 
L 151.53033 57.00419 
L 154.939543 58.285112 
L 158.998131 60.058221 
L 164.322998 62.643126 
L 170.362177 65.813888 
L 174.323358 68.123347 
L 177.01826 69.942063 
L 179.096257 71.608824 
L 180.78463 73.244315 
L 182.245721 74.971215 
L 183.512001 76.808265 
L 184.680874 78.901166 
L 185.752341 81.28559 
L 186.758871 84.087261 
L 187.700463 87.390119 
L 188.577118 91.291958 
L 189.388836 95.9116 
L 190.168084 101.678011 
L 190.882396 108.724675 
L 191.499301 117.036985 
L 192.051269 127.633061 
L 192.505831 140.963003 
L 192.862987 158.757168 
L 193.090268 180.824479 
L 193.220142 210.27015 
L 193.28508 265.185738 
L 193.350017 221.687467 
L 193.544829 175.426546 
L 193.869516 150.372414 
L 194.29161 133.898745 
L 194.843577 120.841341 
L 195.492951 110.649707 
L 196.239732 102.385827 
L 197.051449 95.80093 
L 197.928104 90.44693 
L 198.869696 86.052865 
L 199.843757 82.534405 
L 200.882756 79.599553 
L 201.986692 77.146499 
L 203.155565 75.086716 
L 204.421844 73.30194 
L 205.817999 71.714773 
L 207.408965 70.242095 
L 209.29215 68.805869 
L 211.629896 67.310989 
L 214.77936 65.577951 
L 219.487322 63.264821 
L 226.078468 60.277339 
L 231.208523 58.176126 
L 235.202173 56.773366 
L 238.676324 55.785095 
L 241.923195 55.091591 
L 245.105127 54.638212 
L 248.449403 54.38981 
L 252.183304 54.342651 
L 257.021141 54.520162 
L 269.261841 55.0601 
L 274.262021 54.9915 
L 280.333668 54.665409 
L 286.04816 54.413875 
L 288.840468 54.513933 
L 291.04834 54.811475 
L 292.931524 55.285741 
L 294.652366 55.948839 
L 296.243332 56.798603 
L 297.80183 57.887469 
L 299.327859 59.230917 
L 300.853888 60.876966 
L 302.379917 62.851773 
L 303.938414 65.235106 
L 305.529381 68.083035 
L 307.120347 71.39529 
L 308.678845 75.155529 
L 310.204874 79.429679 
L 311.633496 84.099248 
L 312.964713 89.218732 
L 314.166055 94.715025 
L 315.269991 100.81764 
L 316.244052 107.451119 
L 317.120707 114.988835 
L 317.867487 123.340325 
L 318.516861 133.155213 
L 319.068829 145.132417 
L 319.490922 159.268925 
L 319.815609 177.978387 
L 320.04289 206.064753 
L 320.140296 239.069307 
L 320.172765 272.44475 
L 320.237702 238.526183 
L 320.432515 190.653002 
L 320.757202 165.363093 
L 321.211763 147.801554 
L 321.763731 134.895675 
L 322.445574 124.124569 
L 323.224823 115.228708 
L 324.133946 107.355498 
L 325.172945 100.309446 
L 326.309349 94.1007 
L 327.575629 88.402413 
L 328.939314 83.265493 
L 330.432875 78.502837 
L 331.991372 74.266296 
L 333.614807 70.49033 
L 335.238242 67.261238 
L 336.861677 64.511339 
L 338.485113 62.192954 
L 340.076079 60.302535 
L 341.667045 58.756025 
L 343.258012 57.519198 
L 344.881447 56.539102 
L 346.569819 55.779765 
L 348.388066 55.208168 
L 350.401126 54.810743 
L 352.771341 54.575231 
L 355.823399 54.50826 
L 361.083329 54.655697 
L 368.388787 54.808884 
L 374.070809 54.688923 
L 383.194514 54.221066 
L 388.941475 54.051425 
L 393.032531 54.14961 
L 396.669025 54.456306 
L 398.487273 54.697261 
L 398.487273 54.697261 
" clip-path="url(#p34a47a31e9)" style="fill: none; stroke: #1f77b4; stroke-width: 1.5; stroke-linecap: square"/>
   </g>
   <g id="line2d_19">
    <path d="M 73.832727 57.903434 
L 87.047489 55.887312 
L 90.326828 55.719753 
L 93.346417 55.787383 
L 96.2686 56.074392 
L 99.288189 56.597653 
L 102.535059 57.392146 
L 106.236491 58.533954 
L 110.944453 60.232061 
L 118.02263 63.044092 
L 123.931934 65.592537 
L 127.146335 67.207868 
L 129.386675 68.572496 
L 131.139985 69.89132 
L 132.601077 71.260779 
L 133.867356 72.745829 
L 135.003761 74.417853 
L 136.042759 76.340709 
L 137.01682 78.61674 
L 137.925944 81.309289 
L 138.802599 84.622124 
L 139.614316 88.560933 
L 140.393565 93.460445 
L 141.107877 99.358986 
L 141.789719 106.936069 
L 142.374156 115.95865 
L 142.893655 127.657701 
L 143.315748 142.766183 
L 143.607967 161.146574 
L 143.802779 186.236003 
L 143.900185 218.305743 
L 143.965122 255.994191 
L 143.997591 220.644183 
L 144.192403 171.629361 
L 144.51709 146.258025 
L 144.939183 129.782443 
L 145.491151 116.845994 
L 146.140525 106.853098 
L 146.854837 99.142079 
L 147.634086 92.985722 
L 148.478272 87.987925 
L 149.387395 83.89699 
L 150.361457 80.532521 
L 151.367986 77.830747 
L 152.439453 75.567468 
L 153.608327 73.610581 
L 154.874606 71.916668 
L 156.303229 70.375821 
L 157.959133 68.923376 
L 159.939723 67.492641 
L 162.407345 65.996191 
L 165.686684 64.28134 
L 170.329708 62.120032 
L 175.946793 59.747796 
L 180.654755 57.98771 
L 184.51853 56.772604 
L 187.927744 55.927491 
L 191.142145 55.357962 
L 194.29161 55.026039 
L 197.53848 54.9102 
L 201.077568 55.012277 
L 205.330968 55.369676 
L 212.701363 56.260595 
L 219.454853 56.980219 
L 224.617377 57.302645 
L 236.27364 57.892812 
L 238.124356 58.321661 
L 239.617917 58.888808 
L 240.916665 59.613363 
L 242.118007 60.540452 
L 243.254411 61.708794 
L 244.325878 63.132563 
L 245.397346 64.935656 
L 246.468813 67.191064 
L 247.54028 69.980595 
L 248.611747 73.399144 
L 249.683214 77.565157 
L 250.754681 82.643072 
L 251.79368 88.680137 
L 252.767741 95.697684 
L 253.644396 103.667012 
L 254.423645 112.856354 
L 255.073019 123.15601 
L 255.624986 135.580727 
L 256.04708 150.090595 
L 256.371767 169.1386 
L 256.599048 197.640657 
L 256.696454 231.473847 
L 256.728922 267.289958 
L 256.79386 228.860605 
L 256.988672 181.992064 
L 257.313359 157.112143 
L 257.735452 140.934211 
L 258.28742 128.211532 
L 258.936794 118.30491 
L 259.683574 110.219324 
L 260.52776 103.429591 
L 261.469353 97.617852 
L 262.508351 92.572537 
L 263.644756 88.142539 
L 264.878566 84.214123 
L 266.209783 80.698443 
L 267.670875 77.458183 
L 269.261841 74.464967 
L 271.015151 71.64189 
L 272.930804 68.98355 
L 275.008801 66.484413 
L 277.216673 64.175746 
L 279.554419 62.053435 
L 281.957103 60.173144 
L 284.359787 58.571503 
L 286.762471 57.23233 
L 289.165155 56.142981 
L 291.600308 55.279546 
L 294.132866 54.618401 
L 296.7953 54.154132 
L 299.749952 53.870218 
L 303.191634 53.772256 
L 307.769721 53.881931 
L 321.666325 54.348491 
L 327.770441 54.23061 
L 336.569459 54.044866 
L 339.491642 54.230454 
L 341.79692 54.592393 
L 343.777511 55.123747 
L 345.563289 55.831834 
L 347.219193 56.72851 
L 348.777691 57.823683 
L 350.30372 59.169816 
L 351.79728 60.786177 
L 353.29084 62.73622 
L 354.784401 65.062063 
L 356.277961 67.8141 
L 357.739052 70.9815 
L 359.167675 74.615608 
L 360.563829 78.79478 
L 361.862578 83.390968 
L 363.096388 88.59787 
L 364.232793 94.399586 
L 365.239322 100.707278 
L 366.148446 107.840082 
L 366.960164 116.059881 
L 367.642006 125.282722 
L 368.226443 136.344125 
L 368.681005 149.118239 
L 369.038161 165.319139 
L 369.29791 187.430218 
L 369.460254 221.892566 
L 369.525191 282.222221 
L 369.55766 257.787152 
L 369.720003 194.906288 
L 370.012222 166.599588 
L 370.434315 147.691458 
L 370.953814 134.102789 
L 371.603188 122.88877 
L 372.349968 113.733738 
L 373.226623 105.703332 
L 374.200684 98.791245 
L 375.30462 92.551974 
L 376.505962 87.031732 
L 377.80471 82.092569 
L 379.200864 77.644195 
L 380.661956 73.708997 
L 382.187985 70.215671 
L 383.778951 67.120033 
L 385.402386 64.444587 
L 387.025821 62.190262 
L 388.649256 60.305446 
L 390.30516 58.719328 
L 391.993532 57.410465 
L 393.714374 56.355962 
L 395.532621 55.504459 
L 397.480743 54.84195 
L 398.487273 54.584467 
L 398.487273 54.584467 
" clip-path="url(#p34a47a31e9)" style="fill: none; stroke: #ff7f0e; stroke-width: 1.5; stroke-linecap: square"/>
   </g>
   <g id="line2d_20">
    <path d="M 73.832727 57.831211 
L 77.793909 57.653664 
L 86.820208 57.124308 
L 88.378706 57.354522 
L 89.612516 57.754517 
L 90.683983 58.329178 
L 91.690513 59.128265 
L 92.632105 60.167809 
L 93.541229 61.503983 
L 94.482821 63.304631 
L 95.424414 65.608335 
L 96.398475 68.611077 
L 97.405005 72.483997 
L 98.411534 77.276149 
L 99.418064 83.184651 
L 100.392125 90.276746 
L 101.26878 98.28542 
L 102.048029 107.402898 
L 102.729872 118.015232 
L 103.281839 130.024113 
L 103.736401 144.915519 
L 104.061088 162.655795 
L 104.288369 186.860355 
L 104.418244 223.133303 
L 104.483181 275.349588 
L 104.51565 231.374941 
L 104.710462 180.009933 
L 105.035149 154.624256 
L 105.457242 138.399092 
L 105.976742 126.372158 
L 106.626116 116.442947 
L 107.372896 108.45324 
L 108.217082 101.826001 
L 109.126206 96.386729 
L 110.132735 91.66433 
L 111.236671 87.524373 
L 112.438013 83.861203 
L 113.76923 80.515135 
L 115.230322 77.451929 
L 116.821288 74.634483 
L 118.574598 71.981739 
L 120.52272 69.441585 
L 122.665654 67.017287 
L 124.970932 64.743638 
L 127.438553 62.622451 
L 129.971112 60.737655 
L 132.503671 59.126924 
L 135.003761 57.796689 
L 137.471382 56.732456 
L 139.939003 55.909376 
L 142.439093 55.309931 
L 145.036589 54.916814 
L 147.828898 54.721935 
L 150.978362 54.730698 
L 154.842137 54.97405 
L 161.433284 55.65418 
L 168.381586 56.292373 
L 173.381766 56.523694 
L 178.901445 56.543047 
L 184.615937 56.595552 
L 186.888746 56.844422 
L 188.577118 57.244814 
L 189.973272 57.798156 
L 191.207083 58.525618 
L 192.343487 59.460044 
L 193.414955 60.63868 
L 194.453953 62.124887 
L 195.460483 63.956593 
L 196.499481 66.332193 
L 197.53848 69.292739 
L 198.577478 72.948387 
L 199.616477 77.440073 
L 200.655475 82.970058 
L 201.629536 89.387885 
L 202.53866 96.890309 
L 203.350377 105.467418 
L 204.064689 115.465427 
L 204.649125 126.78992 
L 205.136156 140.750739 
L 205.493312 157.353725 
L 205.753061 179.944876 
L 205.915405 215.624725 
L 205.980342 288.853238 
L 206.012811 245.389629 
L 206.207623 181.992181 
L 206.499841 157.112797 
L 206.921934 139.598422 
L 207.441434 126.917488 
L 208.058339 116.975514 
L 208.77265 108.845699 
L 209.584368 102.024711 
L 210.493492 96.202095 
L 211.500021 91.168328 
L 212.603957 86.772119 
L 213.805299 82.898545 
L 215.104047 79.457121 
L 216.500201 76.37501 
L 218.02623 73.537387 
L 219.682134 70.920458 
L 221.500381 68.460476 
L 223.480972 66.154975 
L 225.623906 64.002716 
L 227.896715 62.033967 
L 230.266931 60.271814 
L 232.702083 58.735383 
L 235.169705 57.438905 
L 237.669795 56.376335 
L 240.202353 55.542321 
L 242.799849 54.921958 
L 245.52722 54.501265 
L 248.481872 54.274649 
L 251.826148 54.247509 
L 255.949674 54.447398 
L 262.930444 55.049809 
L 270.917745 55.667563 
L 277.476423 55.932721 
L 284.29485 56.234907 
L 286.859877 56.580001 
L 288.775531 57.056344 
L 290.334028 57.665927 
L 291.697714 58.433214 
L 292.931524 59.379478 
L 294.100398 60.560215 
L 295.204334 61.992876 
L 296.308269 63.803985 
L 297.379737 65.999411 
L 298.451204 68.712233 
L 299.522671 72.045493 
L 300.594138 76.130987 
L 301.633136 80.984712 
L 302.639666 86.770042 
L 303.581258 93.502542 
L 304.425445 101.127344 
L 305.172225 109.84869 
L 305.821599 120.026165 
L 306.373567 132.319289 
L 306.79566 146.65981 
L 307.120347 165.386292 
L 307.347628 192.90193 
L 307.445034 223.637284 
L 307.509971 272.743797 
L 307.54244 230.740155 
L 307.737252 179.795556 
L 308.061939 154.333858 
L 308.484032 137.952814 
L 309.036 125.117724 
L 309.685374 115.14255 
L 310.432154 107.013662 
L 311.276341 100.200773 
L 312.217933 94.385312 
L 313.256932 89.356536 
L 314.360867 85.077629 
L 315.562209 81.282085 
L 316.860957 77.89608 
L 318.28958 74.793861 
L 319.815609 72.009193 
L 321.471513 69.448079 
L 323.257292 67.09296 
L 325.205414 64.89485 
L 327.283411 62.887029 
L 329.491282 61.06352 
L 331.79656 59.446677 
L 334.199244 58.033992 
L 336.666865 56.842983 
L 339.166955 55.88118 
L 341.764451 55.12016 
L 344.491822 54.55612 
L 347.381537 54.187604 
L 350.595938 54.007051 
L 354.329839 54.027553 
L 359.232613 54.291979 
L 379.233333 55.598304 
L 384.460794 55.966868 
L 387.220633 56.378562 
L 389.29863 56.908431 
L 390.987003 57.562375 
L 392.448094 58.359925 
L 393.779311 59.337982 
L 395.013122 60.520671 
L 396.181995 61.948775 
L 397.318399 63.690444 
L 398.454804 65.855778 
L 398.487273 65.924716 
L 398.487273 65.924716 
" clip-path="url(#p34a47a31e9)" style="fill: none; stroke: #2ca02c; stroke-width: 1.5; stroke-linecap: square"/>
   </g>
   <g id="line2d_21">
    <path d="M 73.832727 127.270663 
L 74.51457 116.73094 
L 75.326288 107.542943 
L 76.26788 99.4092 
L 77.306878 92.318921 
L 78.475752 85.859081 
L 79.742031 80.101019 
L 81.073248 75.059059 
L 82.469402 70.631974 
L 83.865556 66.925274 
L 85.26171 63.833389 
L 86.625396 61.334518 
L 87.989081 59.292912 
L 89.320298 57.69131 
L 90.651515 56.429425 
L 92.0152 55.441271 
L 93.411354 54.699628 
L 94.904914 54.154804 
L 96.560818 53.788118 
L 98.476472 53.5959 
L 100.846687 53.590595 
L 104.223432 53.825055 
L 114.873166 54.694187 
L 119.223972 54.751084 
L 123.639715 54.583059 
L 129.061988 54.138343 
L 135.718072 53.614672 
L 138.412974 53.637396 
L 140.490971 53.87218 
L 142.244281 54.290628 
L 143.802779 54.890228 
L 145.231402 55.678051 
L 146.595087 56.68879 
L 147.893835 57.929556 
L 149.192583 59.485683 
L 150.491331 61.403759 
L 151.790079 63.735023 
L 153.088827 66.538654 
L 154.387575 69.888255 
L 155.653855 73.774911 
L 156.887665 78.281639 
L 158.089007 83.541157 
L 159.192943 89.392933 
L 160.199473 95.935473 
L 161.108597 103.330684 
L 161.920314 111.843689 
L 162.602157 121.39292 
L 163.186594 132.872435 
L 163.641155 146.232618 
L 163.998311 163.514964 
L 164.258061 188.438519 
L 164.387936 219.686866 
L 164.452873 295.488 
L 164.485342 248.53014 
L 164.680154 185.564928 
L 165.004841 158.728567 
L 165.426934 141.776115 
L 165.978902 128.499067 
L 166.628276 118.111159 
L 167.375056 109.551974 
L 168.251711 102.030989 
L 169.225772 95.574976 
L 170.297239 89.932786 
L 171.466112 84.939343 
L 172.732392 80.480723 
L 174.096077 76.47614 
L 175.557169 72.867995 
L 177.083198 69.67846 
L 178.674164 66.852442 
L 180.330068 64.353354 
L 182.050909 62.157365 
L 183.804219 60.280722 
L 185.589998 58.695812 
L 187.408245 57.380085 
L 189.258961 56.313045 
L 191.174614 55.461801 
L 193.220142 54.79799 
L 195.428014 54.320081 
L 197.863167 54.02475 
L 200.687944 53.912963 
L 204.194563 54.007507 
L 209.551899 54.401677 
L 219.227572 55.113623 
L 225.071938 55.292657 
L 235.429454 55.537613 
L 237.637326 55.868111 
L 239.358167 56.341664 
L 240.819259 56.972735 
L 242.085538 57.758767 
L 243.254411 58.746579 
L 244.358347 59.975974 
L 245.429814 61.51406 
L 246.468813 63.404448 
L 247.507811 65.772171 
L 248.54681 68.716715 
L 249.585808 72.360735 
L 250.592338 76.710456 
L 251.598868 82.081882 
L 252.54046 88.334134 
L 253.417115 95.666428 
L 254.196364 104.051668 
L 254.878206 113.791111 
L 255.462643 125.439118 
L 255.917205 138.889571 
L 256.274361 156.103489 
L 256.53411 180.464077 
L 256.663985 209.629291 
L 256.728922 261.294412 
L 256.79386 222.865108 
L 256.988672 175.997723 
L 257.313359 151.123007 
L 257.735452 134.957677 
L 258.28742 122.260758 
L 258.936794 112.396709 
L 259.683574 104.374653 
L 260.52776 97.673006 
L 261.469353 91.97674 
L 262.475882 87.21272 
L 263.579818 83.040466 
L 264.78116 79.366186 
L 266.079908 76.113196 
L 267.476063 73.217912 
L 268.969623 70.627456 
L 270.593058 68.254493 
L 272.346368 66.083216 
L 274.262021 64.067423 
L 276.307549 62.23683 
L 278.515421 60.56078 
L 280.853167 59.067891 
L 283.28832 57.77775 
L 285.78841 56.702827 
L 288.385906 55.82894 
L 291.04834 55.16813 
L 293.808179 54.711333 
L 296.730362 54.453358 
L 299.912295 54.399717 
L 303.451384 54.567024 
L 307.639846 54.99619 
L 312.997182 55.781895 
L 320.335108 57.094493 
L 326.082069 58.319749 
L 329.491282 59.258052 
L 331.926435 60.148199 
L 333.842088 61.079246 
L 335.433055 62.097579 
L 336.79674 63.231745 
L 338.030551 64.551202 
L 339.166955 66.10434 
L 340.205954 67.905084 
L 341.212483 70.109796 
L 342.154076 72.71195 
L 343.063199 75.876166 
L 343.939854 79.730975 
L 344.784041 84.450109 
L 345.595758 90.290437 
L 346.342538 97.323871 
L 347.024381 105.949589 
L 347.608818 116.260322 
L 348.095848 128.906768 
L 348.485473 145.206529 
L 348.745222 164.80277 
L 348.907566 190.454481 
L 349.004972 240.499635 
L 349.03744 264.810825 
L 349.069909 221.562002 
L 349.264721 170.249757 
L 349.589408 144.685918 
L 350.011502 128.243837 
L 350.563469 115.390768 
L 351.212843 105.466731 
L 351.959624 97.478947 
L 352.771341 91.131707 
L 353.647996 85.956464 
L 354.589588 81.671667 
L 355.596118 78.088438 
L 356.667585 75.069275 
L 357.80399 72.508214 
L 359.037801 70.267482 
L 360.369017 68.307247 
L 361.830109 66.551728 
L 363.453544 64.951604 
L 365.271791 63.472691 
L 367.382257 62.049398 
L 369.817409 60.681176 
L 372.674655 59.337684 
L 375.953994 58.047211 
L 379.525551 56.881295 
L 383.226983 55.906762 
L 386.831009 55.18457 
L 390.337629 54.707019 
L 393.746842 54.467537 
L 397.091119 54.455971 
L 398.487273 54.517337 
L 398.487273 54.517337 
" clip-path="url(#p34a47a31e9)" style="fill: none; stroke: #d62728; stroke-width: 1.5; stroke-linecap: square"/>
   </g>
   <g id="line2d_22">
    <path d="M 73.832727 59.221915 
L 78.410814 57.766067 
L 82.307058 56.751232 
L 85.651335 56.102069 
L 88.638455 55.743567 
L 91.365826 55.63524 
L 93.930853 55.751596 
L 96.398475 56.083855 
L 98.801159 56.630735 
L 101.171374 57.39903 
L 103.50912 58.391649 
L 105.814398 59.613502 
L 108.054739 61.052475 
L 110.197673 62.689952 
L 112.243201 64.53199 
L 114.158854 66.558394 
L 115.912164 68.735088 
L 117.535599 71.105178 
L 119.02916 73.681781 
L 120.392845 76.476375 
L 121.659124 79.581402 
L 122.827998 83.044005 
L 123.899465 86.917538 
L 124.905995 91.423434 
L 125.815118 96.549513 
L 126.626836 102.409628 
L 127.373616 109.499494 
L 128.02299 117.904085 
L 128.574958 128.071599 
L 129.02952 140.759412 
L 129.386675 157.427142 
L 129.646425 181.597879 
L 129.7763 211.37825 
L 129.841237 270.162049 
L 129.873706 248.19317 
L 130.036049 184.452819 
L 130.328268 155.791809 
L 130.750361 136.44789 
L 131.26986 122.354528 
L 131.919234 110.547379 
L 132.698483 100.400916 
L 133.575138 91.812103 
L 134.549199 84.381193 
L 135.588197 78.084309 
L 136.692133 72.724484 
L 137.796069 68.423834 
L 138.900005 64.979063 
L 140.003941 62.242497 
L 141.075408 60.150495 
L 142.146875 58.519198 
L 143.250811 57.233323 
L 144.387215 56.246476 
L 145.588557 55.495268 
L 146.919774 54.929846 
L 148.445803 54.532894 
L 150.26405 54.297622 
L 152.666734 54.224319 
L 156.595447 54.359095 
L 164.77756 54.654199 
L 169.810209 54.585699 
L 175.297419 54.279902 
L 186.596527 53.568049 
L 189.258961 53.680745 
L 191.401895 53.988446 
L 193.220142 54.471566 
L 194.811109 55.11913 
L 196.2722 55.949984 
L 197.635886 56.977371 
L 198.967103 58.263964 
L 200.265851 59.841147 
L 201.53213 61.740821 
L 202.765941 63.99622 
L 203.999751 66.722308 
L 205.233562 70.009388 
L 206.434904 73.865465 
L 207.603777 78.395209 
L 208.707713 83.590576 
L 209.746711 89.592602 
L 210.688304 96.375408 
L 211.53249 104.121954 
L 212.27927 113.135637 
L 212.896175 123.3088 
L 213.415675 135.659671 
L 213.805299 149.978212 
L 214.097517 168.273892 
L 214.29233 192.815161 
L 214.389736 222.903926 
L 214.454673 278.379067 
L 214.487142 232.159634 
L 214.681954 180.107906 
L 215.006641 154.378665 
L 215.428734 137.774929 
L 215.980702 124.681159 
L 216.630076 114.415241 
L 217.376856 105.96229 
L 218.253511 98.555814 
L 219.227572 92.229644 
L 220.299039 86.73977 
L 221.435444 82.046165 
L 222.669255 77.873027 
L 224.000471 74.153114 
L 225.396625 70.904351 
L 226.857717 68.054209 
L 228.383746 65.550617 
L 229.974712 63.355568 
L 231.630616 61.44093 
L 233.351457 59.785459 
L 235.137236 58.372507 
L 236.987952 57.188172 
L 238.936074 56.205399 
L 240.981602 55.422596 
L 243.157005 54.827384 
L 245.52722 54.410834 
L 248.157185 54.177958 
L 251.176774 54.140921 
L 254.7808 54.328673 
L 259.456293 54.808851 
L 266.859157 55.821007 
L 275.755581 57.236048 
L 279.586888 58.052858 
L 282.119447 58.807225 
L 284.067569 59.612689 
L 285.658535 60.509456 
L 286.989752 61.508746 
L 288.191094 62.688922 
L 289.29503 64.095236 
L 290.30156 65.740567 
L 291.275621 67.772397 
L 292.217213 70.280326 
L 293.126337 73.373648 
L 294.002992 77.189904 
L 294.847178 81.912893 
L 295.626427 87.543684 
L 296.373207 94.6153 
L 297.05505 103.3278 
L 297.639486 113.783487 
L 298.126517 126.67114 
L 298.516141 143.437502 
L 298.775891 164.027934 
L 298.938234 192.609279 
L 299.003172 223.003034 
L 299.03564 286.626398 
L 299.100578 208.228024 
L 299.327859 161.806109 
L 299.652546 139.48732 
L 300.107107 123.29272 
L 300.659075 111.378847 
L 301.308449 102.024646 
L 302.05523 94.444899 
L 302.866947 88.412705 
L 303.743602 83.500408 
L 304.685194 79.443958 
L 305.691724 76.062513 
L 306.763191 73.222658 
L 307.899596 70.820998 
L 309.133406 68.725372 
L 310.464623 66.896354 
L 311.925715 65.261699 
L 313.581619 63.747708 
L 315.432335 62.358637 
L 317.575269 61.031414 
L 320.075359 59.749327 
L 322.997542 58.505645 
L 326.341818 57.327759 
L 329.978313 56.284364 
L 333.647276 55.460254 
L 337.218833 54.883734 
L 340.595578 54.561192 
L 343.80998 54.47587 
L 346.862037 54.614499 
L 349.816689 54.970433 
L 352.673935 55.539471 
L 355.401306 56.307416 
L 358.031271 57.278513 
L 360.498892 58.424292 
L 362.80417 59.736638 
L 364.947104 61.212122 
L 366.895226 62.821415 
L 368.681005 64.583606 
L 370.30444 66.494507 
L 371.798 68.592479 
L 373.194154 70.942055 
L 374.492902 73.575928 
L 375.694244 76.528956 
L 376.79818 79.836652 
L 377.837179 83.665734 
L 378.81124 88.143641 
L 379.687895 93.238561 
L 380.499612 99.310658 
L 381.213924 106.353032 
L 381.863298 115.092469 
L 382.415266 125.772882 
L 382.869827 139.342347 
L 383.194514 155.611133 
L 383.421795 177.180887 
L 383.55167 205.339805 
L 383.649076 256.354964 
L 383.681545 221.804708 
L 383.876357 172.927537 
L 384.201044 147.303921 
L 384.655606 129.433225 
L 385.207574 116.228163 
L 385.889417 105.172046 
L 386.668665 96.061527 
L 387.54532 88.341737 
L 388.519381 81.723928 
L 389.525911 76.356321 
L 390.597378 71.830389 
L 391.668845 68.234707 
L 392.772781 65.28904 
L 393.876717 62.953982 
L 395.013122 61.057358 
L 396.181995 59.532009 
L 397.415806 58.289047 
L 398.487273 57.449714 
L 398.487273 57.449714 
" clip-path="url(#p34a47a31e9)" style="fill: none; stroke: #9467bd; stroke-width: 1.5; stroke-linecap: square"/>
   </g>
   <g id="line2d_23">
    <path d="M 73.832727 57.513805 
L 87.404644 55.688519 
L 90.619046 55.59957 
L 93.573698 55.740067 
L 96.430943 56.097987 
L 99.353127 56.689716 
L 102.470122 57.552199 
L 105.944273 58.749756 
L 110.100267 60.427818 
L 115.230322 62.748891 
L 120.327908 65.289011 
L 123.899465 67.301627 
L 126.464492 68.991593 
L 128.477552 70.57816 
L 130.133456 72.162647 
L 131.562078 73.838747 
L 132.828358 75.675022 
L 133.964762 77.72387 
L 135.003761 80.064266 
L 135.977822 82.825586 
L 136.886945 86.097542 
L 137.731132 89.986628 
L 138.51038 94.624013 
L 139.257161 100.474008 
L 139.939003 107.702758 
L 140.52344 116.316923 
L 141.042939 127.474899 
L 141.465032 141.773285 
L 141.789719 161.432907 
L 141.984532 186.306798 
L 142.081938 217.93354 
L 142.146875 258.407528 
L 142.179344 221.484186 
L 142.374156 171.83399 
L 142.698843 146.221948 
L 143.120936 129.506266 
L 143.672904 116.282336 
L 144.322278 105.978089 
L 145.069058 97.654446 
L 145.880776 91.070681 
L 146.724962 85.95024 
L 147.634086 81.765943 
L 148.575678 78.45254 
L 149.549739 75.8058 
L 150.588737 73.613402 
L 151.692673 71.79747 
L 152.894015 70.249498 
L 154.225232 68.89927 
L 155.751261 67.67293 
L 157.569508 66.503694 
L 159.874786 65.297018 
L 163.056719 63.899108 
L 168.316648 61.860577 
L 176.433824 58.952043 
L 181.596347 57.319303 
L 185.557529 56.292695 
L 189.03168 55.617725 
L 192.311019 55.206958 
L 195.52542 55.027788 
L 198.902165 55.065849 
L 202.636066 55.336581 
L 207.311559 55.911742 
L 223.221222 58.050405 
L 235.267111 59.285523 
L 237.117827 59.810853 
L 238.611387 60.461226 
L 239.910135 61.269515 
L 241.079008 62.261606 
L 242.182944 63.500151 
L 243.221943 65.005157 
L 244.260941 66.918529 
L 245.267471 69.24728 
L 246.274 72.141543 
L 247.28053 75.718404 
L 248.28706 80.128991 
L 249.29359 85.589008 
L 250.235182 91.951953 
L 251.111837 99.417753 
L 251.891086 107.960738 
L 252.572929 117.899718 
L 253.157365 129.835085 
L 253.611927 143.740443 
L 253.969083 161.892925 
L 254.196364 184.003109 
L 254.326238 212.872504 
L 254.391176 262.354458 
L 254.456113 227.398791 
L 254.650925 179.923788 
L 254.975612 154.983646 
L 255.397706 138.821635 
L 255.949674 126.150774 
L 256.599048 116.322392 
L 257.345828 108.339434 
L 258.190014 101.675859 
L 259.131606 96.012512 
L 260.138136 91.271617 
L 261.242072 87.110029 
L 262.443414 83.429977 
L 263.742162 80.150856 
L 265.170785 77.142492 
L 266.729282 74.376573 
L 268.450124 71.777001 
L 270.333308 69.333143 
L 272.411305 66.997989 
L 274.716583 64.744996 
L 277.184204 62.644653 
L 279.7817 60.725055 
L 282.411665 59.053532 
L 285.04163 57.63989 
L 287.671595 56.475954 
L 290.30156 55.554159 
L 292.963993 54.855566 
L 295.756301 54.355427 
L 298.743422 54.049266 
L 302.152636 53.930381 
L 306.438504 54.01766 
L 324.718383 54.65475 
L 338.2903 54.608485 
L 340.628047 54.934955 
L 342.576169 55.427821 
L 344.29701 56.092716 
L 345.855508 56.932774 
L 347.316599 57.971598 
L 348.745222 59.266398 
L 350.141376 60.841645 
L 351.505062 62.71911 
L 352.868747 64.977279 
L 354.232433 67.66829 
L 355.596118 70.856394 
L 356.959804 74.627756 
L 358.258552 78.875892 
L 359.524831 83.795829 
L 360.693704 89.237551 
L 361.765171 95.27892 
L 362.739232 102.045075 
L 363.615887 109.733836 
L 364.362668 118.238723 
L 365.012042 128.209885 
L 365.564009 140.348255 
L 365.986103 154.653284 
L 366.31079 173.601761 
L 366.538071 202.285964 
L 366.635477 237.179312 
L 366.667945 277.152567 
L 366.732883 231.443681 
L 366.927695 185.578029 
L 367.252382 160.667029 
L 367.706944 143.327909 
L 368.258912 130.620867 
L 368.940754 120.073007 
L 369.720003 111.426953 
L 370.596658 104.085077 
L 371.603188 97.51492 
L 372.707124 91.760609 
L 373.908466 86.648807 
L 375.207214 82.061781 
L 376.635837 77.829101 
L 378.129397 74.08394 
L 379.720363 70.684335 
L 381.376267 67.662372 
L 383.097108 64.982528 
L 384.850418 62.662745 
L 386.603728 60.704024 
L 388.389507 59.037436 
L 390.207754 57.643621 
L 392.05847 56.503418 
L 393.974123 55.582501 
L 396.019651 54.848874 
L 398.227523 54.297263 
L 398.487273 54.246409 
L 398.487273 54.246409 
" clip-path="url(#p34a47a31e9)" style="fill: none; stroke: #8c564b; stroke-width: 1.5; stroke-linecap: square"/>
   </g>
   <g id="patch_3">
    <path d="M 57.6 307.584 
L 57.6 41.472 
" style="fill: none; stroke: #000000; stroke-width: 0.8; stroke-linejoin: miter; stroke-linecap: square"/>
   </g>
   <g id="patch_4">
    <path d="M 414.72 307.584 
L 414.72 41.472 
" style="fill: none; stroke: #000000; stroke-width: 0.8; stroke-linejoin: miter; stroke-linecap: square"/>
   </g>
   <g id="patch_5">
    <path d="M 57.6 307.584 
L 414.72 307.584 
" style="fill: none; stroke: #000000; stroke-width: 0.8; stroke-linejoin: miter; stroke-linecap: square"/>
   </g>
   <g id="patch_6">
    <path d="M 57.6 41.472 
L 414.72 41.472 
" style="fill: none; stroke: #000000; stroke-width: 0.8; stroke-linejoin: miter; stroke-linecap: square"/>
   </g>
  </g>
 </g>
 <defs>
  <clipPath id="p34a47a31e9">
   <rect x="57.6" y="41.472" width="357.12" height="266.112"/>
  </clipPath>
 </defs>
</svg>
